# xmcd CD database file
#
# Track frame offsets:
#	150
#	25200
#	31714
#	66096
#	80710
#	110420
#	121414
#	137781
#	167631
#	176990
#	202346
#	212071
#	240333
#	256156
#
# Disc length: 3718 seconds
#
# Revision: 1
# Processed by: cddbd v1.5.2PL0 Copyright (c) Steve Scherf et al.
# Submitted via: CDex 1.51
#
DISCID=c60e840e
DTITLE=John Geggie, Marilyn Crispell, Nick Fraser - Geggie Project
DYEAR=2006
DGENRE=Jazz
TTITLE0=Credo
TTITLE1=Ice and Meltwater
TTITLE2=Run-away Sheep
TTITLE3=Reconfort
TTITLE4=Or Not
TTITLE5=Entre Chien Et Loup
TTITLE6=View from the Bridge
TTITLE7=Across the Sky
TTITLE8=Weather Forecast
TTITLE9=Canon
TTITLE10=Ecureuils
TTITLE11=I Wanted More
TTITLE12=PH
TTITLE13=Bouclier Canadien
EXTD=YEAR: 2006
EXTT0=
EXTT1=
EXTT2=
EXTT3=
EXTT4=
EXTT5=
EXTT6=
EXTT7=
EXTT8=
EXTT9=
EXTT10=
EXTT11=
EXTT12=
EXTT13=
PLAYORDER=
